# xmcd CD database file
# 
# Track frame offsets:
# 	150
# 	10439
# 	22159
# 	33134
# 	44159
# 	54983
# 	66766
# 	78100
# 	87436
# 	98123
# 	107437
# 	119432
# 	129082
# 	139402
# 	149940
# 	160077
# 	170780
# 	181001
# 	192046
# 	203897
# 	213394
# 	229712
# 	240196
# 	249306
# 	259024
# 
# Disc length: 3571 seconds
# 
# Submitted via: Nero 6, 6, 1, 15
# 
# Revision: 0
# Processed by: cddbd v1.5.2PL0 Copyright (c) Steve Scherf et al.
#
DISCID=580df119
DTITLE=Bill Haley - From Western Swing to R-O-C-K [CD-4 of 4) Don't Knock The R
DTITLE=ock
DYEAR=1900
DGENRE=
TTITLE0=Bill Haley and His Comets - Tonight's The Night[Bill Haley and His Comets]
TTITLE1=Bill Haley and His Comets - Hook Line And Sinker[Bill Haley and His Comets]
TTITLE2=Bill Haley and His Comets - Blue Comet Blues[Bill Haley and His Comets]
TTITLE3=Bill Haley and His Comets - Calling All Comets[Bill Haley and His Comets]
TTITLE4=Bill Haley and His Comets - Choo Choo Ch'Boogie[Bill Haley and His Comets]
TTITLE5=Bill Haley and His Comets - A Rocking Little Tune[Bill Haley and His Comets
TTITLE5=]
TTITLE6=Bill Haley and His Comets - Hot Dog Buddy Buddy[Bill Haley and His Comets]
TTITLE7=Bill Haley and His Comets - Rockin' Through The Rye[Bill Haley and His Come
TTITLE7=ts]
TTITLE8=Jaguars - Knock-Kneed Nellie From Knoxville[Jaguars]
TTITLE9=Jaguars - Shut The Door Baby[Jaguars]
TTITLE10=Jodimars - Eat Your Heart Out Annie[Jodimars]
TTITLE11=Jodimars - Lotsa Love[Jodimars]
TTITLE12=Jodimars - Rattle My Bones[Jodimars]
TTITLE13=Jodimars - Rattle Shakin' Daddy[Jodimars]
TTITLE14=Bill Haley and His Comets - Teenager's Mother[Bill Haley and His Comets]
TTITLE15=Bill Haley and His Comets - Rip It Up[Bill Haley and His Comets]
TTITLE16=Bill Haley and His Comets - Don't Knock The Rock[Bill Haley and His Comets
TTITLE16=]
TTITLE17=Bill Haley and His Comets - Rock Around The Clock (live)[Bill Haley and Hi
TTITLE17=s Comets]
TTITLE18=Bill Haley and His Comets - Hot Dog Buddy Buddy (live)[Bill Haley and His 
TTITLE18=Comets]
TTITLE19=Bill Haley and His Comets - Rip It Up (live)[Bill Haley and His Comets]
TTITLE20=Bill Haley and His Comets - The Saint's Rock 'n' Roll (live)[Bill Haley 
TTITLE20=& His Comets]
TTITLE21=Jodimars - Midnight[Jodimars]
TTITLE22=Jodimars - Clarabella[Jodimars]
TTITLE23=Jodimars - Cloud 99[Jodimars]
TTITLE24=Jodimars - Later[Jodimars]
EXTD=
EXTT0=
EXTT1=
EXTT2=
EXTT3=
EXTT4=
EXTT5=
EXTT6=
EXTT7=
EXTT8=
EXTT9=
EXTT10=
EXTT11=
EXTT12=
EXTT13=
EXTT14=
EXTT15=
EXTT16=
EXTT17=
EXTT18=
EXTT19=
EXTT20=
EXTT21=
EXTT22=
EXTT23=
EXTT24=
PLAYORDER=
